<?xml version="1.0" encoding="utf-8"?>
<!-- Generator: Adobe Illustrator 19.2.1, SVG Export Plug-In . SVG Version: 6.00 Build 0)  -->
<svg version="1.1" id="Layer_1" xmlns="http://www.w3.org/2000/svg" xmlns:xlink="http://www.w3.org/1999/xlink" x="0px" y="0px"
	 viewBox="0 0 1024 768" style="enable-background:new 0 0 1024 768;" xml:space="preserve">
<style type="text/css">
	.st0{fill:#E483B5;}
	.st1{fill:#F06365;}
	.st2{fill:#0DC2F3;}
</style>
<g>
	<circle class="st0" cx="199" cy="-170.9" r="1.1"/>
	<circle class="st0" cx="368.8" cy="-135.3" r="1.1"/>
	<circle class="st1" cx="255.6" cy="-135.3" r="1.1"/>
	<circle class="st2" cx="312.2" cy="-170.9" r="1.1"/>
	<circle class="st0" cx="425.5" cy="-170.9" r="1.1"/>
	<circle class="st1" cx="482.1" cy="-135.3" r="1.1"/>
	<circle class="st2" cx="538.7" cy="-170.9" r="1.1"/>
	<circle class="st1" cx="590.9" cy="-135.3" r="1.1"/>
	<circle class="st1" cx="706.5" cy="-135.3" r="1.1"/>
	<circle class="st2" cx="647.5" cy="-170.9" r="1.1"/>
	<circle class="st0" cx="198.9" cy="-84.1" r="1.1"/>
	<circle class="st2" cx="312.1" cy="-84.1" r="1.1"/>
	<circle class="st0" cx="425.4" cy="-84.1" r="1.1"/>
	<circle class="st2" cx="538.6" cy="-84.1" r="1.1"/>
	<circle class="st2" cx="647.4" cy="-84.1" r="1.1"/>
</g>
<g>
	<circle class="st0" cx="371" cy="-41.8" r="1.1"/>
	<circle class="st1" cx="257.7" cy="-41.8" r="1.1"/>
	<circle class="st1" cx="484.2" cy="-41.8" r="1.1"/>
	<circle class="st1" cx="593" cy="-41.8" r="1.1"/>
	<circle class="st1" cx="708.7" cy="-41.8" r="1.1"/>
</g>
<circle class="st1" cx="46.3" cy="97.5" r="1.1"/>
<circle class="st1" cx="142.9" cy="83.4" r="1.1"/>
<circle class="st1" cx="157.1" cy="271.7" r="1.1"/>
<circle class="st1" cx="340.8" cy="265" r="1.1"/>
<circle class="st2" cx="413.2" cy="112.9" r="1.1"/>
<circle class="st0" cx="112.5" cy="141.1" r="1.1"/>
<circle class="st2" cx="426.8" cy="259.1" r="1.1"/>
<circle class="st1" cx="130.4" cy="221.2" r="1.1"/>
<circle class="st1" cx="507.9" cy="152.3" r="1.1"/>
<circle class="st1" cx="216.1" cy="109.6" r="1.1"/>
<circle class="st1" cx="325" cy="202.8" r="1.1"/>
<circle class="st1" cx="301" cy="91.2" r="1.1"/>
<circle class="st1" cx="493.3" cy="239.9" r="1.1"/>
<circle class="st1" cx="503.4" cy="98.6" r="1.1"/>
<circle class="st0" cx="417.2" cy="181.3" r="1.1"/>
<circle class="st2" cx="177.6" cy="179.1" r="1.1"/>
<circle class="st0" cx="227.8" cy="249" r="1.1"/>
<circle class="st1" cx="34.7" cy="265" r="1.1"/>
<circle class="st2" cx="39" cy="174.2" r="1.1"/>
<circle class="st2" cx="247.9" cy="186.8" r="1.1"/>
<circle class="st1" cx="83.8" cy="251.2" r="1.1"/>
<circle class="st1" cx="321" cy="145.6" r="1.1"/>
<circle class="st1" cx="41.7" cy="341.2" r="1.1"/>
<circle class="st1" cx="138.4" cy="327.1" r="1.1"/>
<circle class="st1" cx="152.5" cy="515.4" r="1.1"/>
<circle class="st1" cx="336.3" cy="508.7" r="1.1"/>
<circle class="st2" cx="408.6" cy="356.6" r="1.1"/>
<circle class="st0" cx="107.9" cy="384.8" r="1.1"/>
<circle class="st2" cx="422.3" cy="502.8" r="1.1"/>
<circle class="st1" cx="125.9" cy="464.9" r="1.1"/>
<circle class="st1" cx="503.4" cy="396" r="1.1"/>
<circle class="st1" cx="211.5" cy="353.3" r="1.1"/>
<circle class="st1" cx="320.5" cy="446.5" r="1.1"/>
<circle class="st1" cx="296.5" cy="334.9" r="1.1"/>
<circle class="st1" cx="488.7" cy="483.6" r="1.1"/>
<circle class="st1" cx="498.9" cy="342.3" r="1.1"/>
<circle class="st0" cx="412.6" cy="425.1" r="1.1"/>
<circle class="st2" cx="173.1" cy="422.9" r="1.1"/>
<circle class="st0" cx="223.3" cy="492.7" r="1.1"/>
<circle class="st1" cx="30.1" cy="508.7" r="1.1"/>
<circle class="st2" cx="34.5" cy="417.9" r="1.1"/>
<circle class="st2" cx="243.3" cy="430.5" r="1.1"/>
<circle class="st1" cx="79.2" cy="494.9" r="1.1"/>
<circle class="st1" cx="316.5" cy="389.3" r="1.1"/>
<circle class="st1" cx="39" cy="574.2" r="1.1"/>
<circle class="st1" cx="135.7" cy="560.1" r="1.1"/>
<circle class="st1" cx="149.8" cy="748.4" r="1.1"/>
<circle class="st1" cx="333.6" cy="741.7" r="1.1"/>
<circle class="st2" cx="405.9" cy="589.6" r="1.1"/>
<circle class="st0" cx="105.2" cy="617.8" r="1.1"/>
<circle class="st2" cx="419.6" cy="735.8" r="1.1"/>
<circle class="st1" cx="123.2" cy="697.9" r="1.1"/>
<circle class="st1" cx="500.7" cy="629" r="1.1"/>
<circle class="st1" cx="208.8" cy="586.3" r="1.1"/>
<circle class="st1" cx="317.8" cy="679.5" r="1.1"/>
<circle class="st1" cx="293.8" cy="567.9" r="1.1"/>
<circle class="st1" cx="486" cy="716.6" r="1.1"/>
<circle class="st1" cx="496.2" cy="575.3" r="1.1"/>
<circle class="st0" cx="409.9" cy="658.1" r="1.1"/>
<circle class="st2" cx="170.4" cy="655.9" r="1.1"/>
<circle class="st0" cx="220.6" cy="725.7" r="1.1"/>
<circle class="st1" cx="27.4" cy="741.7" r="1.1"/>
<circle class="st2" cx="31.8" cy="650.9" r="1.1"/>
<circle class="st2" cx="240.6" cy="663.5" r="1.1"/>
<circle class="st1" cx="76.5" cy="727.9" r="1.1"/>
<circle class="st1" cx="313.8" cy="622.3" r="1.1"/>
<circle class="st1" cx="575.7" cy="93.1" r="1.1"/>
<circle class="st1" cx="672.4" cy="79" r="1.1"/>
<circle class="st1" cx="686.6" cy="267.2" r="1.1"/>
<circle class="st1" cx="870.3" cy="260.6" r="1.1"/>
<circle class="st2" cx="942.7" cy="108.4" r="1.1"/>
<circle class="st0" cx="642" cy="136.6" r="1.1"/>
<circle class="st2" cx="956.3" cy="254.7" r="1.1"/>
<circle class="st1" cx="659.9" cy="216.8" r="1.1"/>
<circle class="st1" cx="1037.4" cy="147.9" r="1.1"/>
<circle class="st1" cx="745.6" cy="105.2" r="1.1"/>
<circle class="st1" cx="854.5" cy="198.4" r="1.1"/>
<circle class="st1" cx="830.5" cy="86.8" r="1.1"/>
<circle class="st1" cx="1022.7" cy="235.5" r="1.1"/>
<circle class="st1" cx="1032.9" cy="94.2" r="1.1"/>
<circle class="st0" cx="946.6" cy="176.9" r="1.1"/>
<circle class="st2" cx="707.1" cy="174.7" r="1.1"/>
<circle class="st0" cx="757.3" cy="244.6" r="1.1"/>
<circle class="st1" cx="564.1" cy="260.6" r="1.1"/>
<circle class="st2" cx="568.5" cy="169.8" r="1.1"/>
<circle class="st2" cx="777.3" cy="182.4" r="1.1"/>
<circle class="st1" cx="613.2" cy="246.8" r="1.1"/>
<circle class="st1" cx="850.5" cy="141.2" r="1.1"/>
<circle class="st1" cx="45.6" cy="-29.1" r="1.1"/>
<circle class="st1" cx="142.2" cy="-43.2" r="1.1"/>
<circle class="st2" cx="412.5" cy="-13.7" r="1.1"/>
<circle class="st0" cx="111.8" cy="14.5" r="1.1"/>
<circle class="st1" cx="507.3" cy="25.7" r="1.1"/>
<circle class="st1" cx="215.4" cy="-17" r="1.1"/>
<circle class="st1" cx="300.3" cy="-35.4" r="1.1"/>
<circle class="st1" cx="502.7" cy="-28" r="1.1"/>
<circle class="st2" cx="38.3" cy="47.6" r="1.1"/>
<circle class="st1" cx="320.4" cy="19" r="1.1"/>
<circle class="st1" cx="575.1" cy="-33.5" r="1.1"/>
<circle class="st1" cx="671.7" cy="-47.6" r="1.1"/>
<circle class="st2" cx="942" cy="-18.2" r="1.1"/>
<circle class="st0" cx="641.3" cy="10" r="1.1"/>
<circle class="st1" cx="744.9" cy="-21.4" r="1.1"/>
<circle class="st1" cx="829.8" cy="-39.8" r="1.1"/>
<circle class="st0" cx="946" cy="50.3" r="1.1"/>
<circle class="st2" cx="706.4" cy="48.1" r="1.1"/>
<circle class="st2" cx="567.8" cy="43.2" r="1.1"/>
<circle class="st1" cx="849.9" cy="14.6" r="1.1"/>
<circle class="st1" cx="576.8" cy="345" r="1.1"/>
<circle class="st1" cx="673.5" cy="330.9" r="1.1"/>
<circle class="st1" cx="687.7" cy="519.2" r="1.1"/>
<circle class="st1" cx="871.4" cy="512.5" r="1.1"/>
<circle class="st2" cx="943.8" cy="360.4" r="1.1"/>
<circle class="st0" cx="643.1" cy="388.6" r="1.1"/>
<circle class="st2" cx="957.4" cy="506.7" r="1.1"/>
<circle class="st1" cx="661" cy="468.8" r="1.1"/>
<circle class="st1" cx="1038.5" cy="399.8" r="1.1"/>
<circle class="st1" cx="746.7" cy="357.1" r="1.1"/>
<circle class="st1" cx="855.6" cy="450.3" r="1.1"/>
<circle class="st1" cx="831.6" cy="338.7" r="1.1"/>
<circle class="st1" cx="1023.8" cy="487.5" r="1.1"/>
<circle class="st1" cx="1034" cy="346.1" r="1.1"/>
<circle class="st0" cx="947.7" cy="428.9" r="1.1"/>
<circle class="st2" cx="708.2" cy="426.7" r="1.1"/>
<circle class="st0" cx="758.4" cy="496.5" r="1.1"/>
<circle class="st1" cx="565.2" cy="512.5" r="1.1"/>
<circle class="st2" cx="569.6" cy="421.7" r="1.1"/>
<circle class="st2" cx="778.4" cy="434.3" r="1.1"/>
<circle class="st1" cx="614.3" cy="498.7" r="1.1"/>
<circle class="st1" cx="851.6" cy="393.1" r="1.1"/>
<circle class="st1" cx="575.7" cy="572" r="1.1"/>
<circle class="st1" cx="672.4" cy="557.9" r="1.1"/>
<circle class="st1" cx="686.6" cy="746.2" r="1.1"/>
<circle class="st1" cx="870.3" cy="739.5" r="1.1"/>
<circle class="st2" cx="942.7" cy="587.4" r="1.1"/>
<circle class="st0" cx="642" cy="615.6" r="1.1"/>
<circle class="st2" cx="956.3" cy="733.6" r="1.1"/>
<circle class="st1" cx="659.9" cy="695.7" r="1.1"/>
<circle class="st1" cx="1037.4" cy="626.8" r="1.1"/>
<circle class="st1" cx="745.6" cy="584.1" r="1.1"/>
<circle class="st1" cx="854.5" cy="677.3" r="1.1"/>
<circle class="st1" cx="830.5" cy="565.7" r="1.1"/>
<circle class="st1" cx="1022.7" cy="714.4" r="1.1"/>
<circle class="st1" cx="1032.9" cy="573.1" r="1.1"/>
<circle class="st0" cx="946.6" cy="655.8" r="1.1"/>
<circle class="st2" cx="707.1" cy="653.6" r="1.1"/>
<circle class="st0" cx="757.3" cy="723.5" r="1.1"/>
<circle class="st1" cx="564.1" cy="739.5" r="1.1"/>
<circle class="st2" cx="568.5" cy="648.7" r="1.1"/>
<circle class="st2" cx="777.3" cy="661.3" r="1.1"/>
<circle class="st1" cx="613.2" cy="725.7" r="1.1"/>
<circle class="st1" cx="850.5" cy="620.1" r="1.1"/>
</svg>
